<?xml version="1.0" encoding="UTF-8"?>
<svg version="1.1" xmlns="http://www.w3.org/2000/svg" width="50" height="50">
<path d="M0 0 C5.94 0 11.88 0 18 0 C18.66 1.65 19.32 3.3 20 5 C21.3921875 4.9071875 21.3921875 4.9071875 22.8125 4.8125 C26 5 26 5 27.67431641 6.10351562 C29.62819376 8.89867571 29.38873633 11.14785234 29.3984375 14.53125 C29.40423828 16.45904297 29.40423828 16.45904297 29.41015625 18.42578125 C29.40387207 19.09432129 29.39758789 19.76286133 29.39111328 20.45166016 C29.37505354 22.4931933 29.39096671 24.53274708 29.41015625 26.57421875 C29.40628906 27.85941406 29.40242188 29.14460938 29.3984375 30.46875 C29.39505371 31.64888672 29.39166992 32.82902344 29.38818359 34.04492188 C29 37 29 37 27.74649048 38.66043091 C25.5621262 40.33585193 24.40088765 40.37966748 21.66796875 40.38818359 C20.79696533 40.39764008 19.92596191 40.40709656 19.02856445 40.4168396 C18.09101318 40.41076691 17.15346191 40.40469421 16.1875 40.3984375 C14.73960083 40.40274277 14.73960083 40.40274277 13.26245117 40.40713501 C11.22151096 40.40917661 9.18055123 40.40364007 7.13964844 40.39111328 C4.0119256 40.3750612 0.88549504 40.39095895 -2.2421875 40.41015625 C-4.22396119 40.40817384 -6.20573408 40.4043302 -8.1875 40.3984375 C-9.12505127 40.40451019 -10.06260254 40.41058289 -11.02856445 40.4168396 C-12.33506958 40.40265488 -12.33506958 40.40265488 -13.66796875 40.38818359 C-14.43391357 40.38579681 -15.1998584 40.38341003 -15.98901367 40.38095093 C-18.5538469 39.89508209 -19.44121147 39.06481133 -21 37 C-21.38818359 34.04492188 -21.38818359 34.04492188 -21.3984375 30.46875 C-21.40230469 29.18355469 -21.40617187 27.89835937 -21.41015625 26.57421875 C-21.40387207 25.90567871 -21.39758789 25.23713867 -21.39111328 24.54833984 C-21.37505354 22.5068067 -21.39096671 20.46725292 -21.41015625 18.42578125 C-21.40628906 17.14058594 -21.40242188 15.85539062 -21.3984375 14.53125 C-21.39505371 13.35111328 -21.39166992 12.17097656 -21.38818359 10.95507812 C-21 8 -21 8 -19.60009766 6.09179688 C-18 5 -18 5 -16 5 C-16 4.34 -16 3.68 -16 3 C-13.03 3 -10.06 3 -7 3 C-7 3.66 -7 4.32 -7 5 C-5.35 5 -3.7 5 -2 5 C-1.34 3.35 -0.68 1.7 0 0 Z M1 4 C1 4.99 1 5.98 1 7 C-2.3 7 -5.6 7 -9 7 C-9 6.34 -9 5.68 -9 5 C-10.65 5 -12.3 5 -14 5 C-14 5.99 -14 6.98 -14 8 C-14.639375 8.103125 -15.27875 8.20625 -15.9375 8.3125 C-16.618125 8.539375 -17.29875 8.76625 -18 9 C-19.48007742 13.44023226 -19.1843724 17.78675298 -19.1875 22.4375 C-19.19974609 23.39205078 -19.21199219 24.34660156 -19.22460938 25.33007812 C-19.22654297 26.25111328 -19.22847656 27.17214844 -19.23046875 28.12109375 C-19.23457764 28.9608374 -19.23868652 29.80058105 -19.24291992 30.66577148 C-18.97359245 33.25375131 -18.44292829 34.8381601 -17 37 C-13.29015074 38.23661642 -9.83701708 38.1623061 -5.97265625 38.16796875 C-5.18733017 38.17129715 -4.40200409 38.17462555 -3.59288025 38.17805481 C-1.93277573 38.18311463 -0.27266105 38.18546343 1.38745117 38.18530273 C3.92448713 38.18748879 6.46108787 38.20565296 8.99804688 38.22460938 C10.61197768 38.22754359 12.22591055 38.2295282 13.83984375 38.23046875 C14.5972435 38.23765427 15.35464325 38.24483978 16.13499451 38.25224304 C21.404271 38.26833922 21.404271 38.26833922 26 36 C27.48007742 31.55976774 27.1843724 27.21324702 27.1875 22.5625 C27.20586914 21.13067383 27.20586914 21.13067383 27.22460938 19.66992188 C27.22654297 18.74888672 27.22847656 17.82785156 27.23046875 16.87890625 C27.23457764 16.0391626 27.23868652 15.19941895 27.24291992 14.33422852 C26.97645242 11.77373025 26.38189156 10.16318593 25 8 C22.32209537 7.16113831 19.8262059 7.18233586 17 7 C16.87625 6.360625 16.7525 5.72125 16.625 5.0625 C16.41875 4.381875 16.2125 3.70125 16 3 C13.53630468 1.76815234 11.8105499 1.83267658 9.0625 1.8125 C7.74958984 1.79123047 7.74958984 1.79123047 6.41015625 1.76953125 C3.73755665 1.83336651 3.73755665 1.83336651 1 4 Z " fill="#000000" transform="translate(21,4)"/>
<path d="M0 0 C4.12974965 2.06487482 6.29527061 3.7458555 8 8 C8.7121481 13.01815989 8.52912753 16.94174495 6.25 21.5 C3.55891188 24.49009791 1.62679122 25.76913524 -2.3671875 26.3359375 C-8.08522757 26.42500354 -11.56237048 25.99386657 -16 22 C-18.73957509 17.559999 -18.65531007 13.06666568 -18 8 C-13.98902931 -0.02194138 -8.43057162 -1.09038939 0 0 Z M-14 7 C-15.60086627 10.20173254 -15.49917089 13.52577059 -15 17 C-13.20636089 19.8100346 -11.98119065 21.50940468 -9 23 C-3.18654053 23.53365513 -3.18654053 23.53365513 1.9375 21.125 C5.09695358 17.8698054 5.33421243 15.57586762 5.29296875 11.0390625 C4.83745033 7.86865433 3.24684343 6.1807598 1 4 C-4.71872108 1.14063946 -9.77770087 2.64975241 -14 7 Z " fill="#000000" transform="translate(35,13)"/>
<path d="M0 0 C1.32 0 2.64 0 4 0 C4 1.32 4 2.64 4 4 C2.68 4 1.36 4 0 4 C0 2.68 0 1.36 0 0 Z " fill="#000000" transform="translate(5,14)"/>
</svg>
